<svg id="Layer_1" data-name="Layer 1" xmlns="http://www.w3.org/2000/svg" viewBox="0 0 174.87 36"><defs><style>.cls-1{fill:#fff;}</style></defs><title>selenium grid logo single line white</title><path class="cls-1" d="M47.85,26.64a16.44,16.44,0,0,1-2.26-.18A22.05,22.05,0,0,1,43.19,26l0-1.22a22.17,22.17,0,0,0,2.38.47,15.92,15.92,0,0,0,2.2.18,4.84,4.84,0,0,0,2.89-.74,2.45,2.45,0,0,0,1-2.1,2.5,2.5,0,0,0-1.09-2.19,5.22,5.22,0,0,0-1.19-.62q-.68-.26-1.47-.49a14,14,0,0,1-2.05-.76,5.19,5.19,0,0,1-1.39-.92,3.17,3.17,0,0,1-.79-1.18,4.35,4.35,0,0,1-.25-1.53,3.92,3.92,0,0,1,.36-1.7,3.78,3.78,0,0,1,1-1.32,4.61,4.61,0,0,1,1.6-.84,7,7,0,0,1,2.09-.29,18.08,18.08,0,0,1,3.88.5l0,1.24a17.47,17.47,0,0,0-2-.38A13.32,13.32,0,0,0,48.64,12a4.27,4.27,0,0,0-2.71.79,2.55,2.55,0,0,0-1,2.12,2.87,2.87,0,0,0,.19,1.07,2.3,2.3,0,0,0,.61.85,4.24,4.24,0,0,0,1.12.69,12.69,12.69,0,0,0,1.73.6q1,.29,1.81.62a5.45,5.45,0,0,1,1.45.83,3.6,3.6,0,0,1,1,1.21,4,4,0,0,1,.35,1.77,3.65,3.65,0,0,1-1.37,3.06A6.29,6.29,0,0,1,47.85,26.64Z"/><path class="cls-1" d="M60.52,26.6a4.8,4.8,0,0,1-3.76-1.42A6.07,6.07,0,0,1,55.48,21a6.86,6.86,0,0,1,1.25-4.44A4.43,4.43,0,0,1,60.37,15a3.73,3.73,0,0,1,3,1.25,5.69,5.69,0,0,1,1,3.7q0,.48,0,.81a2.79,2.79,0,0,1-.08.56h-7.5a4.74,4.74,0,0,0,1,3.08,3.68,3.68,0,0,0,2.81,1,9.26,9.26,0,0,0,1.6-.14,10.39,10.39,0,0,0,1.7-.46l.1,1.12a9.31,9.31,0,0,1-1.74.49A10.07,10.07,0,0,1,60.52,26.6Zm-.19-10.45q-3.23,0-3.46,4.17h6.28a5.7,5.7,0,0,0-.68-3.19A2.43,2.43,0,0,0,60.33,16.15Z"/><path class="cls-1" d="M67.56,9.66H69V26.41H67.56Z"/><path class="cls-1" d="M77.16,26.6a4.8,4.8,0,0,1-3.76-1.42A6.07,6.07,0,0,1,72.13,21a6.86,6.86,0,0,1,1.25-4.44A4.43,4.43,0,0,1,77,15a3.73,3.73,0,0,1,3,1.25,5.69,5.69,0,0,1,1,3.7q0,.48,0,.81a2.79,2.79,0,0,1-.08.56h-7.5a4.74,4.74,0,0,0,1,3.08,3.68,3.68,0,0,0,2.81,1,9.26,9.26,0,0,0,1.6-.14,10.39,10.39,0,0,0,1.7-.46l.1,1.12a9.31,9.31,0,0,1-1.74.49A10.07,10.07,0,0,1,77.16,26.6ZM77,16.15q-3.23,0-3.46,4.17H79.8a5.7,5.7,0,0,0-.68-3.19A2.43,2.43,0,0,0,77,16.15Z"/><path class="cls-1" d="M84.15,15.22h1.16l.1,1.31h.1q.83-.39,1.51-.68t1.25-.48a7.52,7.52,0,0,1,1.06-.27,5.69,5.69,0,0,1,1-.08,2.9,2.9,0,0,1,2.16.74,3.18,3.18,0,0,1,.72,2.31v8.36H91.82V18.53a2.59,2.59,0,0,0-.49-1.77,1.92,1.92,0,0,0-1.48-.53,6.35,6.35,0,0,0-2,.36,17.77,17.77,0,0,0-2.34,1v8.83H84.15Z"/><path class="cls-1" d="M97.54,12.71a.82.82,0,0,1-.93-.91.93.93,0,0,1,1.87,0A.82.82,0,0,1,97.54,12.71Zm-.71,2.51h1.39v11.2H96.84Z"/><path class="cls-1" d="M104.63,26.62q-2.76,0-2.76-3V15.22h1.39v7.9a2.77,2.77,0,0,0,.43,1.73,1.69,1.69,0,0,0,1.4.53,6,6,0,0,0,2.18-.42q1.1-.42,2.28-1V15.22h1.39v11.2h-1.16l-.1-1.39h-.08l-1.52.72q-.65.3-1.21.5a7,7,0,0,1-1.08.29A6.43,6.43,0,0,1,104.63,26.62Z"/><path class="cls-1" d="M114.62,15.22h1.14l.12,1.31H116a17,17,0,0,1,2.27-1.15A4.83,4.83,0,0,1,120,15a2.49,2.49,0,0,1,2.63,1.55h.1q.7-.44,1.28-.73a11,11,0,0,1,1.06-.48,5.49,5.49,0,0,1,.92-.27,4.5,4.5,0,0,1,.85-.08,2.9,2.9,0,0,1,2.16.74,3.18,3.18,0,0,1,.73,2.31v8.36h-1.37V18.53a2.55,2.55,0,0,0-.49-1.76,1.94,1.94,0,0,0-1.48-.52,4.52,4.52,0,0,0-1.57.33,12.75,12.75,0,0,0-1.94,1v8.87h-1.37V18.53a2.55,2.55,0,0,0-.49-1.76,2,2,0,0,0-1.48-.52,4.62,4.62,0,0,0-1.64.35,12.44,12.44,0,0,0-1.91,1v8.85h-1.39Z"/><path class="cls-1" d="M145.18,26.6q-6.94,0-6.95-7.81t7.13-7.92a12.83,12.83,0,0,1,1.81.13,19.13,19.13,0,0,1,1.94.38v1.24L148,12.39l-.92-.16c-.29,0-.57-.07-.83-.08l-.81,0a5.45,5.45,0,0,0-4.35,1.63,7.5,7.5,0,0,0-1.41,5q0,6.59,5.49,6.59a12.23,12.23,0,0,0,1.29-.08c.51-.05,1-.12,1.43-.21V18.62h1.35V26a16,16,0,0,1-2.09.46A13.35,13.35,0,0,1,145.18,26.6Z"/><path class="cls-1" d="M152.58,15.22h1.16l.1,1.51h.08q1.24-.64,2.22-1.1A7.13,7.13,0,0,1,158,15h.46v1.35H158a8.51,8.51,0,0,0-2,.53,20.83,20.83,0,0,0-2,.92v8.58h-1.39Z"/><path class="cls-1" d="M161.49,12.71a.82.82,0,0,1-.93-.91.93.93,0,0,1,1.87,0A.82.82,0,0,1,161.49,12.71Zm-.71,2.51h1.39v11.2h-1.39Z"/><path class="cls-1" d="M169.93,26.62a4.27,4.27,0,0,1-3.44-1.39,6.64,6.64,0,0,1-1.18-4.35,7.87,7.87,0,0,1,.38-2.59,4.88,4.88,0,0,1,1.09-1.82,4.47,4.47,0,0,1,1.69-1.09,6.34,6.34,0,0,1,2.21-.36,12.7,12.7,0,0,1,1.49.08l1.31.15V9.66h1.39V26.41h-1.2L173.54,25h-.12A3.81,3.81,0,0,1,172,26.21,4.78,4.78,0,0,1,169.93,26.62Zm.25-1.16a4.08,4.08,0,0,0,1.23-.19,3.62,3.62,0,0,0,1-.52,2.64,2.64,0,0,0,.74-.81,2,2,0,0,0,.28-1.06V16.38q-.6-.1-1.32-.17t-1.5-.06a3.74,3.74,0,0,0-2.92,1.1,5.24,5.24,0,0,0-1,3.57,5.88,5.88,0,0,0,.84,3.55A3.08,3.08,0,0,0,170.18,25.46Z"/><path class="cls-1" d="M22.71,22.78A2.64,2.64,0,0,0,20,25.13a.08.08,0,0,0,.08.1h5.25a.08.08,0,0,0,.08-.1A2.54,2.54,0,0,0,22.71,22.78Zm0,0A2.64,2.64,0,0,0,20,25.13a.08.08,0,0,0,.08.1h5.25a.08.08,0,0,0,.08-.1A2.54,2.54,0,0,0,22.71,22.78ZM34.1,0H.26A.26.26,0,0,0,0,.26V35.74A.26.26,0,0,0,.26,36H34.1a.27.27,0,0,0,.27-.26V.26A.27.27,0,0,0,34.1,0ZM9.58,32a8.51,8.51,0,0,1-6.07-2.16.32.32,0,0,1,0-.43L4.79,27.6a.34.34,0,0,1,.5-.05,6.51,6.51,0,0,0,4.45,1.74c1.74,0,2.58-.8,2.58-1.65,0-2.63-8.55-.82-8.55-6.41,0-2.48,2.14-4.52,5.64-4.52A8.34,8.34,0,0,1,15,18.57.33.33,0,0,1,15,19l-1.36,1.79a.33.33,0,0,1-.47.06,6.45,6.45,0,0,0-4.07-1.4C7.76,19.47,7,20.07,7,21c0,2.36,8.53.78,8.53,6.33C15.53,30,13.59,32,9.58,32ZM28.24,26.9a.29.29,0,0,1-.29.29H20.14a.1.1,0,0,0-.09.1,3,3,0,0,0,3.16,2.46,5,5,0,0,0,2.72-.89.29.29,0,0,1,.42.06l.94,1.39a.3.3,0,0,1-.06.4,7.11,7.11,0,0,1-4.33,1.35A5.6,5.6,0,0,1,17,26.25a5.62,5.62,0,0,1,5.71-5.78c3.29,0,5.53,2.47,5.53,6.08Zm-3-12.42h1.13a2.54,2.54,0,1,1,0,1.2H25.22A2.18,2.18,0,0,1,23,13.51V10.9H21.39a2.54,2.54,0,1,1,0-1.2H23V7.1a2.18,2.18,0,0,1,2.18-2.17h1.13a2.54,2.54,0,1,1,0,1.2H25.22a1,1,0,0,0-1,1v6.41A1,1,0,0,0,25.22,14.48Zm-2.51,8.3A2.64,2.64,0,0,0,20,25.13a.08.08,0,0,0,.08.1h5.25a.08.08,0,0,0,.08-.1A2.54,2.54,0,0,0,22.71,22.78Zm0,0A2.64,2.64,0,0,0,20,25.13a.08.08,0,0,0,.08.1h5.25a.08.08,0,0,0,.08-.1A2.54,2.54,0,0,0,22.71,22.78Zm0,0A2.64,2.64,0,0,0,20,25.13a.08.08,0,0,0,.08.1h5.25a.08.08,0,0,0,.08-.1A2.54,2.54,0,0,0,22.71,22.78Z"/></svg>