<svg id="Layer_1" data-name="Layer 1" xmlns="http://www.w3.org/2000/svg" viewBox="0 0 107.25 86.42"><defs><style>.cls-1{fill:#fff;}</style></defs><title>selenium grid logo centered white</title><path class="cls-1" d="M3.92,86.42A14.28,14.28,0,0,1,2,86.27Q1,86.13,0,85.91V84.39a17.76,17.76,0,0,0,2,.39,13.36,13.36,0,0,0,1.78.14q2.66,0,2.66-1.76a1.66,1.66,0,0,0-.19-.83,1.76,1.76,0,0,0-.54-.58,3.23,3.23,0,0,0-.82-.4q-.47-.16-1-.3a10.24,10.24,0,0,1-1.65-.54,4.08,4.08,0,0,1-1.14-.72,2.59,2.59,0,0,1-.66-1,3.63,3.63,0,0,1-.22-1.31,3.16,3.16,0,0,1,.3-1.38,2.93,2.93,0,0,1,.85-1,4,4,0,0,1,1.34-.66,6.29,6.29,0,0,1,1.77-.23,11.79,11.79,0,0,1,1.47.1q.77.1,1.79.32v1.5a12.41,12.41,0,0,0-1.6-.32,11.45,11.45,0,0,0-1.5-.11,3.14,3.14,0,0,0-1.86.48,1.67,1.67,0,0,0-.09,2.61,5.45,5.45,0,0,0,2,.82,11.49,11.49,0,0,1,1.5.48,4.46,4.46,0,0,1,1.15.66,2.69,2.69,0,0,1,.74,1A3.23,3.23,0,0,1,8.32,83a3,3,0,0,1-1.13,2.52A5.27,5.27,0,0,1,3.92,86.42Z"/><path class="cls-1" d="M14.06,86.37A4.08,4.08,0,0,1,11,85.27a4.62,4.62,0,0,1-1-3.27,5,5,0,0,1,1-3.39,3.83,3.83,0,0,1,3-1.17q3.46,0,3.46,3.86a5,5,0,0,1-.11,1.18H11.7a2.87,2.87,0,0,0,.69,1.91,2.63,2.63,0,0,0,1.87.57,9.41,9.41,0,0,0,1.38-.11,9.61,9.61,0,0,0,1.42-.32l.08,1.33a8.63,8.63,0,0,1-1.49.38A9.62,9.62,0,0,1,14.06,86.37Zm-.14-7.62a2,2,0,0,0-1.59.63,3.4,3.4,0,0,0-.63,2h4.13a3.63,3.63,0,0,0-.47-2A1.66,1.66,0,0,0,13.92,78.76Z"/><path class="cls-1" d="M19.62,73.3h1.79V86.23H19.62Z"/><path class="cls-1" d="M27.76,86.37a4.08,4.08,0,0,1-3.11-1.1,4.62,4.62,0,0,1-1-3.27,5,5,0,0,1,1-3.39,3.83,3.83,0,0,1,3-1.17q3.46,0,3.46,3.86A5,5,0,0,1,31,82.48H25.39a2.87,2.87,0,0,0,.69,1.91A2.63,2.63,0,0,0,28,85a9.41,9.41,0,0,0,1.38-.11,9.61,9.61,0,0,0,1.42-.32l.08,1.33a8.63,8.63,0,0,1-1.49.38A9.62,9.62,0,0,1,27.76,86.37Zm-.14-7.62a2,2,0,0,0-1.59.63,3.4,3.4,0,0,0-.63,2h4.13a3.63,3.63,0,0,0-.47-2A1.66,1.66,0,0,0,27.62,78.76Z"/><path class="cls-1" d="M33.28,77.59h1.5l.11,1H35a16.12,16.12,0,0,1,2.1-.88,5.25,5.25,0,0,1,1.58-.27,2.35,2.35,0,0,1,1.72.59,2.41,2.41,0,0,1,.6,1.79v6.42H39.22V80.4a1.75,1.75,0,0,0-.31-1.17,1.23,1.23,0,0,0-1-.35,4.47,4.47,0,0,0-1.3.23,12.35,12.35,0,0,0-1.56.62v6.5H33.28Z"/><path class="cls-1" d="M44.45,76a1,1,0,1,1,0-2,1.09,1.09,0,0,1,.81.26,1.32,1.32,0,0,1,0,1.54A1.09,1.09,0,0,1,44.45,76Zm-.9,1.63h1.79v8.64H43.55Z"/><path class="cls-1" d="M50.18,86.39a2.25,2.25,0,0,1-1.71-.61A2.48,2.48,0,0,1,47.89,84V77.59h1.79v5.87A1.76,1.76,0,0,0,50,84.59a1.2,1.2,0,0,0,1,.33,4.13,4.13,0,0,0,1.44-.28q.75-.28,1.47-.62V77.59h1.79v8.64h-1.5l-.11-1h-.06l-1.14.54a9.37,9.37,0,0,1-.9.37,5.38,5.38,0,0,1-.82.22A5.23,5.23,0,0,1,50.18,86.39Z"/><path class="cls-1" d="M58.21,77.59H59.7l.11,1h.1a11,11,0,0,1,1.71-.87A4,4,0,0,1,63,77.43a2,2,0,0,1,2.08,1.18h.08a10.5,10.5,0,0,1,1.75-.9,4,4,0,0,1,1.42-.28,2.34,2.34,0,0,1,1.72.59,2.41,2.41,0,0,1,.6,1.79v6.42H68.91V80.42a1.72,1.72,0,0,0-.31-1.16,1.25,1.25,0,0,0-1-.34,3.15,3.15,0,0,0-1,.21,8.16,8.16,0,0,0-1.24.58v6.53H63.57V80.42a1.75,1.75,0,0,0-.3-1.16,1.24,1.24,0,0,0-1-.34,3.09,3.09,0,0,0-1.06.22,7.78,7.78,0,0,0-1.22.59v6.5H58.21Z"/><path class="cls-1" d="M82.45,86.39q-5.63,0-5.63-6t5.84-6.13a12.18,12.18,0,0,1,1.54.1,15.53,15.53,0,0,1,1.57.28v1.52q-1-.21-1.66-.29a11.3,11.3,0,0,0-1.31-.08,5.81,5.81,0,0,0-1.86.26,2.93,2.93,0,0,0-1.27.82,3.38,3.38,0,0,0-.73,1.42,8.07,8.07,0,0,0-.23,2.08,5.33,5.33,0,0,0,.9,3.46,3.6,3.6,0,0,0,2.9,1.07q.34,0,.79,0l.9-.1v-4.5h1.7v5.65a14.93,14.93,0,0,1-1.78.38A11.07,11.07,0,0,1,82.45,86.39Z"/><path class="cls-1" d="M88.3,77.59h1.5l.11,1.22H90q.82-.5,1.56-.86a5.6,5.6,0,0,1,1.42-.5h.58V79h-.62a7.26,7.26,0,0,0-1.45.35,9.15,9.15,0,0,0-1.37.61v6.22H88.3Z"/><path class="cls-1" d="M96.09,76a1,1,0,1,1,0-2,1.09,1.09,0,0,1,.81.26,1.32,1.32,0,0,1,0,1.54A1.09,1.09,0,0,1,96.09,76Zm-.9,1.63H97v8.64H95.2Z"/><path class="cls-1" d="M102.77,86.39a3.34,3.34,0,0,1-2.69-1.06,5,5,0,0,1-.91-3.3,5.93,5.93,0,0,1,.31-2,3.73,3.73,0,0,1,.9-1.43,3.78,3.78,0,0,1,1.4-.86,5.45,5.45,0,0,1,1.82-.29,9.44,9.44,0,0,1,1,0l.9.1V73.3h1.78V86.23h-1.57l-.14-1.06h-.1A3.08,3.08,0,0,1,102.77,86.39Zm.46-1.38a2.91,2.91,0,0,0,.87-.13,2.18,2.18,0,0,0,.71-.37,1.73,1.73,0,0,0,.48-.59,1.8,1.8,0,0,0,.18-.82V78.92q-.42-.08-.9-.13c-.32,0-.66,0-1,0a2.46,2.46,0,0,0-2,.71,3.75,3.75,0,0,0-.62,2.46,4.07,4.07,0,0,0,.54,2.39A2,2,0,0,0,103.23,85Z"/><path class="cls-1" d="M63.23,38a4.39,4.39,0,0,0-4.5,3.91.14.14,0,0,0,.14.17h8.74a.15.15,0,0,0,.14-.16A4.24,4.24,0,0,0,63.23,38Zm0,0a4.39,4.39,0,0,0-4.5,3.91.14.14,0,0,0,.14.17h8.74a.15.15,0,0,0,.14-.16A4.24,4.24,0,0,0,63.23,38Zm19-38H25.81a.43.43,0,0,0-.43.43V59.56a.43.43,0,0,0,.43.43H82.22a.44.44,0,0,0,.44-.43V.43A.44.44,0,0,0,82.22,0ZM41.35,53.41c-4.52,0-7.83-1.44-10.12-3.6a.55.55,0,0,1-.07-.72L33.37,46a.56.56,0,0,1,.83-.09,10.81,10.81,0,0,0,7.41,2.9c2.9,0,4.31-1.34,4.31-2.75,0-4.38-14.25-1.37-14.25-10.69,0-4.12,3.56-7.53,9.39-7.53A13.91,13.91,0,0,1,50.32,31a.55.55,0,0,1,.07.75l-2.26,3a.55.55,0,0,1-.79.09,10.75,10.75,0,0,0-6.77-2.33c-2.26,0-3.52,1-3.52,2.49,0,3.93,14.21,1.3,14.21,10.54C51.26,50,48,53.41,41.35,53.41Zm31.1-8.59a.49.49,0,0,1-.48.49H59a.15.15,0,0,0-.15.17,5,5,0,0,0,5.27,4.1,8.13,8.13,0,0,0,4.52-1.49.49.49,0,0,1,.7.1l1.58,2.32a.49.49,0,0,1-.1.66,11.79,11.79,0,0,1-7.23,2.25c-5.6,0-9.83-3.77-9.83-9.67a9.37,9.37,0,0,1,9.52-9.64c5.49,0,9.22,4.12,9.22,10.13Zm-5-20.69H69.3a4.24,4.24,0,1,1,0,2H67.41a3.64,3.64,0,0,1-3.63-3.63V18.17H61a4.24,4.24,0,1,1,0-2h2.76V11.83a3.63,3.63,0,0,1,3.63-3.62H69.3a4.24,4.24,0,1,1,0,2H67.41a1.63,1.63,0,0,0-1.63,1.62V22.5A1.63,1.63,0,0,0,67.41,24.13ZM63.23,38a4.39,4.39,0,0,0-4.5,3.91.14.14,0,0,0,.14.17h8.74a.15.15,0,0,0,.14-.16A4.24,4.24,0,0,0,63.23,38Zm0,0a4.39,4.39,0,0,0-4.5,3.91.14.14,0,0,0,.14.17h8.74a.15.15,0,0,0,.14-.16A4.24,4.24,0,0,0,63.23,38Zm0,0a4.39,4.39,0,0,0-4.5,3.91.14.14,0,0,0,.14.17h8.74a.15.15,0,0,0,.14-.16A4.24,4.24,0,0,0,63.23,38Z"/></svg>