<svg id="Layer_1" data-name="Layer 1" xmlns="http://www.w3.org/2000/svg" viewBox="0 0 138.63 59.99"><defs><style>.cls-1{fill:#645d9c;}</style></defs><title>selenium grid logo stacked </title><path class="cls-1" d="M71.87,37.82a14.26,14.26,0,0,1-1.9-.14q-1.06-.14-2-.37V35.79a17.71,17.71,0,0,0,2,.39,13.35,13.35,0,0,0,1.78.14q2.66,0,2.66-1.76a1.67,1.67,0,0,0-.19-.83,1.77,1.77,0,0,0-.54-.58,3.21,3.21,0,0,0-.82-.4c-.31-.11-.66-.21-1-.3a10.25,10.25,0,0,1-1.65-.54A4.08,4.08,0,0,1,69,31.18a2.59,2.59,0,0,1-.66-1,3.63,3.63,0,0,1-.22-1.31,3.16,3.16,0,0,1,.29-1.38,2.92,2.92,0,0,1,.85-1,4,4,0,0,1,1.34-.66,6.29,6.29,0,0,1,1.77-.23,11.8,11.8,0,0,1,1.47.1q.77.1,1.79.32v1.5a12.39,12.39,0,0,0-1.6-.32,11.46,11.46,0,0,0-1.5-.11,3.14,3.14,0,0,0-1.86.48,1.67,1.67,0,0,0-.09,2.61,5.45,5.45,0,0,0,2,.82,11.55,11.55,0,0,1,1.51.48,4.44,4.44,0,0,1,1.15.66,2.69,2.69,0,0,1,.74,1,3.23,3.23,0,0,1,.26,1.37,3,3,0,0,1-1.13,2.52A5.27,5.27,0,0,1,71.87,37.82Z"/><path class="cls-1" d="M82,37.77a4.08,4.08,0,0,1-3.11-1.1,4.62,4.62,0,0,1-1-3.27,5,5,0,0,1,1-3.39,3.83,3.83,0,0,1,3-1.17q3.46,0,3.46,3.86a4.94,4.94,0,0,1-.11,1.18H79.64a2.86,2.86,0,0,0,.69,1.91,2.63,2.63,0,0,0,1.87.57,9.4,9.4,0,0,0,1.38-.11A9.55,9.55,0,0,0,85,35.93l.08,1.33a8.62,8.62,0,0,1-1.49.38A9.61,9.61,0,0,1,82,37.77Zm-.14-7.62a2,2,0,0,0-1.59.63,3.4,3.4,0,0,0-.63,2h4.13a3.64,3.64,0,0,0-.47-2A1.66,1.66,0,0,0,81.87,30.16Z"/><path class="cls-1" d="M87.56,24.7h1.79V37.63H87.56Z"/><path class="cls-1" d="M95.71,37.77a4.08,4.08,0,0,1-3.11-1.1,4.61,4.61,0,0,1-1-3.27,5,5,0,0,1,1-3.39,3.84,3.84,0,0,1,3-1.17q3.45,0,3.46,3.86A5,5,0,0,1,99,33.89H93.34A2.87,2.87,0,0,0,94,35.8a2.63,2.63,0,0,0,1.87.57,9.42,9.42,0,0,0,1.38-.11,9.67,9.67,0,0,0,1.42-.32l.08,1.33a8.64,8.64,0,0,1-1.49.38A9.62,9.62,0,0,1,95.71,37.77Zm-.14-7.62a2,2,0,0,0-1.59.63,3.41,3.41,0,0,0-.63,2h4.13a3.63,3.63,0,0,0-.47-2A1.66,1.66,0,0,0,95.56,30.16Z"/><path class="cls-1" d="M101.23,29h1.5l.11,1h.1A16.07,16.07,0,0,1,105,29.1a5.25,5.25,0,0,1,1.58-.27,2.35,2.35,0,0,1,1.72.59,2.41,2.41,0,0,1,.6,1.79v6.42h-1.78V31.81a1.75,1.75,0,0,0-.31-1.17,1.23,1.23,0,0,0-1-.35,4.48,4.48,0,0,0-1.3.23,12.41,12.41,0,0,0-1.56.62v6.5h-1.79Z"/><path class="cls-1" d="M112.39,27.36a1,1,0,1,1,.81-1.79,1.32,1.32,0,0,1,0,1.54A1.09,1.09,0,0,1,112.39,27.36ZM111.5,29h1.79v8.64H111.5Z"/><path class="cls-1" d="M118.12,37.79a2.25,2.25,0,0,1-1.71-.61,2.48,2.48,0,0,1-.58-1.78V29h1.79v5.87a1.75,1.75,0,0,0,.28,1.13,1.19,1.19,0,0,0,1,.33A4.14,4.14,0,0,0,120.3,36c.5-.19,1-.39,1.47-.62V29h1.79v8.64h-1.5l-.11-1h-.06l-1.14.54a9.37,9.37,0,0,1-.9.37,5.35,5.35,0,0,1-.82.22A5.21,5.21,0,0,1,118.12,37.79Z"/><path class="cls-1" d="M126.15,29h1.49l.11,1h.1a11,11,0,0,1,1.71-.87,4,4,0,0,1,1.42-.28A2,2,0,0,1,133.07,30h.08a10.5,10.5,0,0,1,1.75-.9,4,4,0,0,1,1.42-.28,2.34,2.34,0,0,1,1.72.59,2.41,2.41,0,0,1,.6,1.79v6.42h-1.78V31.82a1.72,1.72,0,0,0-.31-1.16,1.25,1.25,0,0,0-1-.34,3.14,3.14,0,0,0-1,.21,8.11,8.11,0,0,0-1.24.58v6.53h-1.79V31.82a1.76,1.76,0,0,0-.3-1.16,1.24,1.24,0,0,0-1-.34,3.09,3.09,0,0,0-1.06.22,7.78,7.78,0,0,0-1.22.59v6.5h-1.79Z"/><path class="cls-1" d="M73.67,57.09Q68,57.09,68,51t5.84-6.13a12.15,12.15,0,0,1,1.54.1A15.48,15.48,0,0,1,77,45.3v1.52q-1-.21-1.66-.29A11.3,11.3,0,0,0,74,46.45a5.79,5.79,0,0,0-1.86.26,2.94,2.94,0,0,0-1.27.82,3.38,3.38,0,0,0-.73,1.42A8.13,8.13,0,0,0,69.91,51a5.33,5.33,0,0,0,.9,3.46,3.6,3.6,0,0,0,2.9,1.07q.34,0,.79,0l.9-.1v-4.5h1.7v5.65a14.76,14.76,0,0,1-1.79.38A10.93,10.93,0,0,1,73.67,57.09Z"/><path class="cls-1" d="M79.53,48.29H81l.11,1.21h.06q.81-.5,1.56-.86a5.61,5.61,0,0,1,1.42-.5h.58v1.6h-.62a7.28,7.28,0,0,0-1.45.35,9.13,9.13,0,0,0-1.37.61v6.22H79.53Z"/><path class="cls-1" d="M87.32,46.66a1.1,1.1,0,1,1,1.05-1,1.07,1.07,0,0,1-.25.77A1.09,1.09,0,0,1,87.32,46.66Zm-.9,1.63h1.79v8.64H86.43Z"/><path class="cls-1" d="M94,57.09A3.34,3.34,0,0,1,91.31,56a5,5,0,0,1-.91-3.3,6,6,0,0,1,.31-2A3.63,3.63,0,0,1,93,48.42a5.47,5.47,0,0,1,1.82-.29,9.45,9.45,0,0,1,1,0l.89.1V44h1.78V56.93H96.91l-.14-1.06h-.1A3.08,3.08,0,0,1,94,57.09Zm.46-1.37a2.88,2.88,0,0,0,.87-.13,2.17,2.17,0,0,0,.71-.37,1.73,1.73,0,0,0,.48-.59,1.81,1.81,0,0,0,.18-.82V49.62c-.28-.05-.58-.1-.89-.13s-.66,0-1,0a2.46,2.46,0,0,0-2,.71,3.75,3.75,0,0,0-.62,2.46A4.07,4.07,0,0,0,92.74,55,2,2,0,0,0,94.46,55.72Z"/><path class="cls-1" d="M37.85,38a4.39,4.39,0,0,0-4.5,3.91.14.14,0,0,0,.14.17h8.74a.15.15,0,0,0,.14-.16A4.24,4.24,0,0,0,37.85,38Zm0,0a4.39,4.39,0,0,0-4.5,3.91.14.14,0,0,0,.14.17h8.74a.15.15,0,0,0,.14-.16A4.24,4.24,0,0,0,37.85,38Zm19-38H.43A.43.43,0,0,0,0,.43V59.56A.43.43,0,0,0,.43,60H56.84a.44.44,0,0,0,.44-.43V.43A.44.44,0,0,0,56.84,0ZM16,53.41c-4.52,0-7.83-1.44-10.12-3.6a.55.55,0,0,1-.07-.72L8,46a.56.56,0,0,1,.83-.09,10.81,10.81,0,0,0,7.41,2.9c2.9,0,4.31-1.34,4.31-2.75,0-4.38-14.25-1.37-14.25-10.69,0-4.12,3.56-7.53,9.39-7.53A13.91,13.91,0,0,1,24.94,31a.55.55,0,0,1,.07.75l-2.26,3a.55.55,0,0,1-.79.09,10.74,10.74,0,0,0-6.77-2.33c-2.26,0-3.52,1-3.52,2.49,0,3.93,14.21,1.3,14.21,10.54C25.88,50,22.65,53.41,16,53.41Zm31.1-8.59a.49.49,0,0,1-.48.49h-13a.15.15,0,0,0-.15.17,5,5,0,0,0,5.27,4.1,8.13,8.13,0,0,0,4.52-1.49.49.49,0,0,1,.7.1l1.58,2.32a.49.49,0,0,1-.1.66,11.79,11.79,0,0,1-7.23,2.25c-5.6,0-9.83-3.77-9.83-9.67a9.37,9.37,0,0,1,9.52-9.64c5.49,0,9.22,4.12,9.22,10.13Zm-5-20.7h1.89a4.24,4.24,0,1,1,0,2H42A3.63,3.63,0,0,1,38.4,22.5V18.16H35.64a4.24,4.24,0,1,1,0-2H38.4V11.83A3.64,3.64,0,0,1,42,8.2h1.89a4.24,4.24,0,1,1,0,2H42a1.63,1.63,0,0,0-1.63,1.63V22.5A1.63,1.63,0,0,0,42,24.12ZM37.85,38a4.39,4.39,0,0,0-4.5,3.91.14.14,0,0,0,.14.17h8.74a.15.15,0,0,0,.14-.16A4.24,4.24,0,0,0,37.85,38Zm0,0a4.39,4.39,0,0,0-4.5,3.91.14.14,0,0,0,.14.17h8.74a.15.15,0,0,0,.14-.16A4.24,4.24,0,0,0,37.85,38Zm0,0a4.39,4.39,0,0,0-4.5,3.91.14.14,0,0,0,.14.17h8.74a.15.15,0,0,0,.14-.16A4.24,4.24,0,0,0,37.85,38Z"/></svg>