<svg id="Layer_1" data-name="Layer 1" xmlns="http://www.w3.org/2000/svg" viewBox="0 0 138.63 60"><defs><style>.cls-1{fill:#fff;}</style></defs><title>selenium IDE logo stacked white</title><path class="cls-1" d="M56.84,0H.44A.44.44,0,0,0,0,.44V59.56A.44.44,0,0,0,.44,60H56.84a.44.44,0,0,0,.44-.44V.44A.44.44,0,0,0,56.84,0ZM16,53.42a14.26,14.26,0,0,1-10.13-3.6.55.55,0,0,1-.07-.72L8,46a.55.55,0,0,1,.83-.09,10.85,10.85,0,0,0,7.42,2.9c2.9,0,4.31-1.34,4.31-2.75,0-4.38-14.25-1.37-14.25-10.69,0-4.12,3.56-7.53,9.39-7.53A13.91,13.91,0,0,1,24.95,31a.55.55,0,0,1,.07.75l-2.26,3a.55.55,0,0,1-.79.09,10.74,10.74,0,0,0-6.77-2.33c-2.26,0-3.53,1-3.53,2.49,0,3.93,14.21,1.3,14.21,10.54C25.89,50,22.66,53.42,16,53.42Zm31.1-8.59a.49.49,0,0,1-.49.49h-13a.15.15,0,0,0-.15.17,5,5,0,0,0,5.27,4.09,8.14,8.14,0,0,0,4.52-1.49.48.48,0,0,1,.7.11l1.58,2.32a.49.49,0,0,1-.1.66,11.78,11.78,0,0,1-7.23,2.25c-5.6,0-9.83-3.77-9.83-9.67a9.36,9.36,0,0,1,9.52-9.63c5.48,0,9.22,4.11,9.22,10.13Zm4.53-27.65a.78.78,0,0,1-1.21.66l-5.21-3.38v2.22a1,1,0,0,1-1,1h-13a1,1,0,0,1-1-1V7a1,1,0,0,1,1-1h13a1,1,0,0,1,1,1V9.18L50.4,5.8a.78.78,0,0,1,1.21.66Z"/><path class="cls-1" d="M42.38,41.88a.15.15,0,0,1-.15.16H33.5a.15.15,0,0,1-.15-.17A4.4,4.4,0,0,1,37.86,38,4.25,4.25,0,0,1,42.38,41.88Z"/><path class="cls-1" d="M71.86,37.83a14.28,14.28,0,0,1-1.9-.14q-1.06-.14-2-.37V35.79a17.76,17.76,0,0,0,2,.39,13.36,13.36,0,0,0,1.78.14q2.66,0,2.66-1.76a1.66,1.66,0,0,0-.19-.83,1.76,1.76,0,0,0-.54-.58,3.23,3.23,0,0,0-.82-.4q-.47-.16-1-.3a10.24,10.24,0,0,1-1.65-.54A4.08,4.08,0,0,1,69,31.19a2.59,2.59,0,0,1-.66-1,3.63,3.63,0,0,1-.22-1.31,3.16,3.16,0,0,1,.3-1.38,2.93,2.93,0,0,1,.85-1,4,4,0,0,1,1.34-.66,6.29,6.29,0,0,1,1.77-.23,11.79,11.79,0,0,1,1.47.1q.77.1,1.79.32v1.5a12.41,12.41,0,0,0-1.6-.32,11.45,11.45,0,0,0-1.5-.11,3.14,3.14,0,0,0-1.86.48,1.67,1.67,0,0,0-.09,2.61,5.45,5.45,0,0,0,2,.82,11.49,11.49,0,0,1,1.5.48,4.46,4.46,0,0,1,1.15.66,2.69,2.69,0,0,1,.74,1,3.23,3.23,0,0,1,.26,1.37A3,3,0,0,1,75.14,37,5.27,5.27,0,0,1,71.86,37.83Z"/><path class="cls-1" d="M82,37.78a4.08,4.08,0,0,1-3.11-1.1,4.62,4.62,0,0,1-1-3.27,5,5,0,0,1,1-3.39,3.83,3.83,0,0,1,3-1.17q3.46,0,3.46,3.86a5,5,0,0,1-.11,1.18H79.64a2.87,2.87,0,0,0,.69,1.91,2.63,2.63,0,0,0,1.87.57,9.41,9.41,0,0,0,1.38-.11A9.61,9.61,0,0,0,85,35.94l.08,1.33a8.63,8.63,0,0,1-1.49.38A9.62,9.62,0,0,1,82,37.78Zm-.14-7.62a2,2,0,0,0-1.59.63,3.4,3.4,0,0,0-.63,2h4.13a3.63,3.63,0,0,0-.47-2A1.66,1.66,0,0,0,81.86,30.16Z"/><path class="cls-1" d="M87.56,24.71h1.79V37.63H87.56Z"/><path class="cls-1" d="M95.7,37.78a4.08,4.08,0,0,1-3.11-1.1,4.62,4.62,0,0,1-1-3.27,5,5,0,0,1,1-3.39,3.83,3.83,0,0,1,3-1.17q3.46,0,3.46,3.86A5,5,0,0,1,99,33.89H93.34A2.87,2.87,0,0,0,94,35.8a2.63,2.63,0,0,0,1.87.57,9.41,9.41,0,0,0,1.38-.11,9.61,9.61,0,0,0,1.42-.32l.08,1.33a8.63,8.63,0,0,1-1.49.38A9.62,9.62,0,0,1,95.7,37.78Zm-.14-7.62a2,2,0,0,0-1.59.63,3.4,3.4,0,0,0-.63,2h4.13a3.63,3.63,0,0,0-.47-2A1.66,1.66,0,0,0,95.56,30.16Z"/><path class="cls-1" d="M101.22,29h1.5l.11,1h.1a16.12,16.12,0,0,1,2.1-.88,5.25,5.25,0,0,1,1.58-.27,2.35,2.35,0,0,1,1.72.59,2.41,2.41,0,0,1,.6,1.79v6.42h-1.78V31.81a1.75,1.75,0,0,0-.31-1.17,1.23,1.23,0,0,0-1-.35,4.47,4.47,0,0,0-1.3.23,12.35,12.35,0,0,0-1.56.62v6.5h-1.79Z"/><path class="cls-1" d="M112.39,27.36a1,1,0,1,1,0-2,1.09,1.09,0,0,1,.81.26,1.32,1.32,0,0,1,0,1.54A1.09,1.09,0,0,1,112.39,27.36ZM111.5,29h1.79v8.64H111.5Z"/><path class="cls-1" d="M118.12,37.79a2.25,2.25,0,0,1-1.71-.61,2.48,2.48,0,0,1-.58-1.78V29h1.79v5.87A1.76,1.76,0,0,0,117.9,36a1.2,1.2,0,0,0,1,.33A4.13,4.13,0,0,0,120.3,36q.75-.28,1.47-.62V29h1.79v8.64h-1.5l-.11-1h-.06l-1.14.54a9.37,9.37,0,0,1-.9.37,5.38,5.38,0,0,1-.82.22A5.23,5.23,0,0,1,118.12,37.79Z"/><path class="cls-1" d="M126.15,29h1.49l.11,1h.1a11,11,0,0,1,1.71-.87,4,4,0,0,1,1.42-.28A2,2,0,0,1,133.06,30h.08a10.5,10.5,0,0,1,1.75-.9,4,4,0,0,1,1.42-.28,2.34,2.34,0,0,1,1.72.59,2.41,2.41,0,0,1,.6,1.79v6.42h-1.78V31.83a1.72,1.72,0,0,0-.31-1.16,1.25,1.25,0,0,0-1-.34,3.15,3.15,0,0,0-1,.21,8.16,8.16,0,0,0-1.24.58v6.53h-1.79V31.83a1.75,1.75,0,0,0-.3-1.16,1.24,1.24,0,0,0-1-.34,3.09,3.09,0,0,0-1.06.22,7.78,7.78,0,0,0-1.22.59v6.5h-1.79Z"/><path class="cls-1" d="M68.63,45.1h1.82V56.94H68.63Z"/><path class="cls-1" d="M76.58,57.11q-.94,0-1.79-.06a9.28,9.28,0,0,1-1.34-.17V45.13q1-.08,1.91-.13T77,45a6.62,6.62,0,0,1,4.74,1.46A6.16,6.16,0,0,1,83.22,51a8.75,8.75,0,0,1-.38,2.75,4.46,4.46,0,0,1-1.18,1.9,4.9,4.9,0,0,1-2.06,1.1A11.28,11.28,0,0,1,76.58,57.11Zm.61-1.49a6,6,0,0,0,1.89-.26,3,3,0,0,0,1.29-.82,3.42,3.42,0,0,0,.74-1.42,8,8,0,0,0,.24-2.1,7.84,7.84,0,0,0-.24-2.08,3.42,3.42,0,0,0-.74-1.42,2.94,2.94,0,0,0-1.29-.81,6.14,6.14,0,0,0-1.89-.26l-.92,0-1,.08v8.9l1,.12C76.53,55.61,76.85,55.62,77.19,55.62Z"/><path class="cls-1" d="M85.64,45.1h7.84v1.47h-6v3.65H93v1.47H87.46v3.78h6.16v1.47h-8Z"/></svg>