<svg id="Layer_1" data-name="Layer 1" xmlns="http://www.w3.org/2000/svg" viewBox="0 0 169.56 36"><defs><style>.cls-1{fill:#0033a0;}</style></defs><title>selenium IDE logo single line</title><path class="cls-1" d="M34.11,0H.26A.26.26,0,0,0,0,.26V35.74A.26.26,0,0,0,.26,36H34.11a.26.26,0,0,0,.26-.26V.26A.26.26,0,0,0,34.11,0ZM9.59,32a8.55,8.55,0,0,1-6.08-2.16.33.33,0,0,1,0-.43L4.8,27.6a.33.33,0,0,1,.5-.05,6.51,6.51,0,0,0,4.45,1.74c1.74,0,2.58-.8,2.58-1.65,0-2.63-8.55-.82-8.55-6.41,0-2.47,2.14-4.52,5.63-4.52A8.35,8.35,0,0,1,15,18.57.33.33,0,0,1,15,19l-1.36,1.79a.33.33,0,0,1-.47.06,6.44,6.44,0,0,0-4.06-1.4C7.76,19.47,7,20.07,7,21c0,2.36,8.53.78,8.53,6.32C15.53,30,13.6,32,9.59,32ZM28.25,26.9a.29.29,0,0,1-.29.29H20.15a.09.09,0,0,0-.09.1,3,3,0,0,0,3.16,2.46,4.89,4.89,0,0,0,2.71-.89.29.29,0,0,1,.42.06l1,1.39a.29.29,0,0,1-.06.4,7.07,7.07,0,0,1-4.34,1.35,5.59,5.59,0,0,1-5.9-5.8,5.62,5.62,0,0,1,5.71-5.78c3.29,0,5.53,2.47,5.53,6.08ZM31,10.31a.47.47,0,0,1-.73.39l-3.12-2V10a.59.59,0,0,1-.59.59h-7.8a.59.59,0,0,1-.59-.59V4.17a.59.59,0,0,1,.59-.59h7.8a.59.59,0,0,1,.59.59V5.51l3.12-2a.47.47,0,0,1,.73.39Z"/><path class="cls-1" d="M25.43,25.13a.09.09,0,0,1-.09.1H20.1a.09.09,0,0,1-.09-.1,2.64,2.64,0,0,1,2.71-2.34A2.55,2.55,0,0,1,25.43,25.13Z"/><path class="cls-1" d="M47.85,26a16.6,16.6,0,0,1-2.26-.18,22.05,22.05,0,0,1-2.41-.47l0-1.22a22.41,22.41,0,0,0,2.38.47,15.78,15.78,0,0,0,2.2.18,4.84,4.84,0,0,0,2.89-.74,2.45,2.45,0,0,0,1-2.1,2.5,2.5,0,0,0-1.09-2.19,5.3,5.3,0,0,0-1.19-.62q-.68-.26-1.47-.49a14,14,0,0,1-2.05-.76A5.19,5.19,0,0,1,44.51,17a3.16,3.16,0,0,1-.79-1.18,4.35,4.35,0,0,1-.25-1.53,3.92,3.92,0,0,1,.36-1.7,3.8,3.8,0,0,1,1-1.32,4.63,4.63,0,0,1,1.6-.84,7,7,0,0,1,2.09-.29,18,18,0,0,1,3.88.5l0,1.24a17.48,17.48,0,0,0-2-.38,13.32,13.32,0,0,0-1.79-.13,4.27,4.27,0,0,0-2.71.79,2.55,2.55,0,0,0-1,2.11,2.86,2.86,0,0,0,.19,1.07,2.3,2.3,0,0,0,.61.85,4.26,4.26,0,0,0,1.12.69,12.7,12.7,0,0,0,1.73.6q1,.29,1.81.62a5.47,5.47,0,0,1,1.45.83,3.61,3.61,0,0,1,1,1.21,4,4,0,0,1,.35,1.77A3.65,3.65,0,0,1,51.79,25,6.29,6.29,0,0,1,47.85,26Z"/><path class="cls-1" d="M60.52,26a4.8,4.8,0,0,1-3.76-1.42,6.07,6.07,0,0,1-1.27-4.18A6.86,6.86,0,0,1,56.73,16a4.43,4.43,0,0,1,3.64-1.53,3.73,3.73,0,0,1,3,1.25,5.69,5.69,0,0,1,1,3.7q0,.48,0,.81a2.77,2.77,0,0,1-.08.56h-7.5a4.74,4.74,0,0,0,1,3.08,3.68,3.68,0,0,0,2.81,1,9.17,9.17,0,0,0,1.6-.15,10.29,10.29,0,0,0,1.7-.46l.1,1.12a9.39,9.39,0,0,1-1.74.49A10,10,0,0,1,60.52,26Zm-.19-10.45q-3.23,0-3.46,4.17h6.28a5.7,5.7,0,0,0-.68-3.19A2.43,2.43,0,0,0,60.33,15.54Z"/><path class="cls-1" d="M67.57,9.05H69V25.8H67.57Z"/><path class="cls-1" d="M77.16,26a4.8,4.8,0,0,1-3.76-1.42,6.07,6.07,0,0,1-1.27-4.18A6.86,6.86,0,0,1,73.38,16,4.43,4.43,0,0,1,77,14.42a3.73,3.73,0,0,1,3,1.25,5.69,5.69,0,0,1,1,3.7q0,.48,0,.81a2.77,2.77,0,0,1-.08.56h-7.5a4.74,4.74,0,0,0,1,3.08,3.68,3.68,0,0,0,2.81,1,9.17,9.17,0,0,0,1.6-.15,10.29,10.29,0,0,0,1.7-.46l.1,1.12a9.39,9.39,0,0,1-1.74.49A10,10,0,0,1,77.16,26ZM77,15.54q-3.23,0-3.46,4.17H79.8a5.7,5.7,0,0,0-.68-3.19A2.43,2.43,0,0,0,77,15.54Z"/><path class="cls-1" d="M84.15,14.61h1.16l.1,1.31h.1q.83-.39,1.51-.68t1.25-.48a7.26,7.26,0,0,1,1.06-.27,5.69,5.69,0,0,1,1-.08,2.9,2.9,0,0,1,2.16.74,3.19,3.19,0,0,1,.72,2.31V25.8H91.82V17.92a2.59,2.59,0,0,0-.49-1.77,1.92,1.92,0,0,0-1.48-.53,6.38,6.38,0,0,0-2,.36,17.66,17.66,0,0,0-2.34,1V25.8H84.15Z"/><path class="cls-1" d="M97.54,12.1a.82.82,0,0,1-.93-.91.93.93,0,0,1,1.87,0A.82.82,0,0,1,97.54,12.1Zm-.71,2.51h1.39V25.8H96.84Z"/><path class="cls-1" d="M104.63,26q-2.76,0-2.76-3V14.61h1.39v7.9a2.77,2.77,0,0,0,.43,1.73,1.69,1.69,0,0,0,1.4.53,6,6,0,0,0,2.18-.42q1.1-.42,2.28-1V14.61h1.39V25.8h-1.16l-.1-1.39h-.08l-1.52.71c-.44.2-.84.37-1.21.5a7.06,7.06,0,0,1-1.08.29A6.52,6.52,0,0,1,104.63,26Z"/><path class="cls-1" d="M114.62,14.61h1.14l.12,1.31H116a17.13,17.13,0,0,1,2.27-1.15A4.83,4.83,0,0,1,120,14.4,2.49,2.49,0,0,1,122.65,16h.1q.7-.44,1.28-.73a11,11,0,0,1,1.06-.48,5.31,5.31,0,0,1,.92-.27,4.51,4.51,0,0,1,.85-.08,2.9,2.9,0,0,1,2.16.74,3.18,3.18,0,0,1,.73,2.31V25.8h-1.37V17.92a2.54,2.54,0,0,0-.49-1.76,1.94,1.94,0,0,0-1.48-.52,4.53,4.53,0,0,0-1.57.33,12.74,12.74,0,0,0-1.94,1V25.8h-1.37V17.92a2.55,2.55,0,0,0-.49-1.76,1.94,1.94,0,0,0-1.48-.52,4.6,4.6,0,0,0-1.64.35A12.27,12.27,0,0,0,116,17V25.8h-1.39Z"/><path class="cls-1" d="M139,10.46h1.41V25.8H139Z"/><path class="cls-1" d="M148.45,26q-1.18,0-2.2-.07a7,7,0,0,1-1.53-.24V10.5l1-.08,1.11-.07,1.07-.05.89,0q4,0,5.87,1.9t1.87,6q0,4.08-1.94,6T148.45,26Zm.35-1.22a6.31,6.31,0,0,0,4.78-1.61q1.52-1.61,1.52-5.07t-1.49-5a6.19,6.19,0,0,0-4.71-1.59q-.58,0-1.37,0t-1.41.13V24.6l.73.1.64.06.63,0Z"/><path class="cls-1" d="M160,10.46h9.39v1.22h-8v5.72h7.48v1.2h-7.48v6h8.15V25.8H160Z"/></svg>