<svg id="Layer_1" data-name="Layer 1" xmlns="http://www.w3.org/2000/svg" viewBox="0 0 102.4 86.42"><defs><style>.cls-1{fill:#0033a0;}</style></defs><title>selenium IDE logo centered</title><path class="cls-1" d="M79.6,0H23.19a.44.44,0,0,0-.44.44V59.56a.44.44,0,0,0,.44.44H79.6a.44.44,0,0,0,.44-.44V.44A.44.44,0,0,0,79.6,0ZM38.73,53.42a14.26,14.26,0,0,1-10.13-3.6.55.55,0,0,1-.07-.72L30.75,46a.55.55,0,0,1,.83-.09A10.85,10.85,0,0,0,39,48.81c2.9,0,4.31-1.34,4.31-2.75C43.3,41.69,29,44.69,29,35.38c0-4.12,3.56-7.53,9.39-7.53A13.91,13.91,0,0,1,47.7,31a.55.55,0,0,1,.07.75l-2.26,3a.55.55,0,0,1-.79.09A10.74,10.74,0,0,0,38,32.45c-2.26,0-3.53,1-3.53,2.49,0,3.93,14.21,1.3,14.21,10.54C48.64,50,45.42,53.42,38.73,53.42Zm31.1-8.59a.49.49,0,0,1-.49.49h-13a.15.15,0,0,0-.15.17,5,5,0,0,0,5.27,4.09A8.14,8.14,0,0,0,66,48.09a.48.48,0,0,1,.7.11l1.58,2.32a.49.49,0,0,1-.1.66,11.78,11.78,0,0,1-7.23,2.25c-5.6,0-9.83-3.77-9.83-9.67a9.36,9.36,0,0,1,9.52-9.63c5.48,0,9.22,4.11,9.22,10.13Zm4.53-27.65a.78.78,0,0,1-1.21.66l-5.21-3.38v2.22a1,1,0,0,1-1,1H54a1,1,0,0,1-1-1V7a1,1,0,0,1,1-1H67a1,1,0,0,1,1,1V9.18L73.15,5.8a.78.78,0,0,1,1.21.66Z"/><path class="cls-1" d="M65.13,41.88A.15.15,0,0,1,65,42H56.26a.15.15,0,0,1-.15-.17A4.4,4.4,0,0,1,60.62,38,4.25,4.25,0,0,1,65.13,41.88Z"/><path class="cls-1" d="M3.92,86.42A14.28,14.28,0,0,1,2,86.28Q1,86.13,0,85.91V84.39a17.76,17.76,0,0,0,2,.39,13.36,13.36,0,0,0,1.78.14q2.66,0,2.66-1.76a1.66,1.66,0,0,0-.19-.83,1.76,1.76,0,0,0-.54-.58,3.23,3.23,0,0,0-.82-.4q-.47-.16-1-.3a10.24,10.24,0,0,1-1.65-.54,4.08,4.08,0,0,1-1.14-.72,2.59,2.59,0,0,1-.66-1,3.63,3.63,0,0,1-.22-1.31,3.16,3.16,0,0,1,.3-1.38,2.93,2.93,0,0,1,.85-1,4,4,0,0,1,1.34-.66,6.29,6.29,0,0,1,1.77-.23,11.79,11.79,0,0,1,1.47.1q.77.1,1.79.32v1.5a12.41,12.41,0,0,0-1.6-.32,11.45,11.45,0,0,0-1.5-.11,3.14,3.14,0,0,0-1.86.48,1.67,1.67,0,0,0-.09,2.61,5.45,5.45,0,0,0,2,.82,11.49,11.49,0,0,1,1.5.48,4.46,4.46,0,0,1,1.15.66,2.69,2.69,0,0,1,.74,1A3.23,3.23,0,0,1,8.32,83a3,3,0,0,1-1.13,2.52A5.27,5.27,0,0,1,3.92,86.42Z"/><path class="cls-1" d="M14.06,86.37A4.08,4.08,0,0,1,11,85.28a4.62,4.62,0,0,1-1-3.27,5,5,0,0,1,1-3.39,3.83,3.83,0,0,1,3-1.17q3.46,0,3.46,3.86a5,5,0,0,1-.11,1.18H11.7a2.87,2.87,0,0,0,.69,1.91,2.63,2.63,0,0,0,1.87.57,9.41,9.41,0,0,0,1.38-.11,9.61,9.61,0,0,0,1.42-.32l.08,1.33a8.63,8.63,0,0,1-1.49.38A9.62,9.62,0,0,1,14.06,86.37Zm-.14-7.62a2,2,0,0,0-1.59.63,3.4,3.4,0,0,0-.63,2h4.13a3.63,3.63,0,0,0-.47-2A1.66,1.66,0,0,0,13.92,78.76Z"/><path class="cls-1" d="M19.62,73.3h1.79V86.23H19.62Z"/><path class="cls-1" d="M27.76,86.37a4.08,4.08,0,0,1-3.11-1.1,4.62,4.62,0,0,1-1-3.27,5,5,0,0,1,1-3.39,3.83,3.83,0,0,1,3-1.17q3.46,0,3.46,3.86A5,5,0,0,1,31,82.49H25.39a2.87,2.87,0,0,0,.69,1.91A2.63,2.63,0,0,0,28,85a9.41,9.41,0,0,0,1.38-.11,9.61,9.61,0,0,0,1.42-.32l.08,1.33a8.63,8.63,0,0,1-1.49.38A9.62,9.62,0,0,1,27.76,86.37Zm-.14-7.62a2,2,0,0,0-1.59.63,3.4,3.4,0,0,0-.63,2h4.13a3.63,3.63,0,0,0-.47-2A1.66,1.66,0,0,0,27.62,78.76Z"/><path class="cls-1" d="M33.28,77.59h1.5l.11,1H35a16.12,16.12,0,0,1,2.1-.88,5.25,5.25,0,0,1,1.58-.27,2.35,2.35,0,0,1,1.72.59,2.41,2.41,0,0,1,.6,1.79v6.42H39.22V80.41a1.75,1.75,0,0,0-.31-1.17,1.23,1.23,0,0,0-1-.35,4.47,4.47,0,0,0-1.3.23,12.35,12.35,0,0,0-1.56.62v6.5H33.28Z"/><path class="cls-1" d="M44.45,76a1,1,0,1,1,0-2,1.09,1.09,0,0,1,.81.26,1.32,1.32,0,0,1,0,1.54A1.09,1.09,0,0,1,44.45,76Zm-.9,1.63h1.79v8.64H43.55Z"/><path class="cls-1" d="M50.18,86.39a2.25,2.25,0,0,1-1.71-.61A2.48,2.48,0,0,1,47.89,84V77.59h1.79v5.87A1.76,1.76,0,0,0,50,84.59a1.2,1.2,0,0,0,1,.33,4.13,4.13,0,0,0,1.44-.28q.75-.28,1.47-.62V77.59h1.79v8.64h-1.5l-.11-1h-.06l-1.14.54a9.37,9.37,0,0,1-.9.37,5.38,5.38,0,0,1-.82.22A5.23,5.23,0,0,1,50.18,86.39Z"/><path class="cls-1" d="M58.21,77.59H59.7l.11,1h.1a11,11,0,0,1,1.71-.87A4,4,0,0,1,63,77.43a2,2,0,0,1,2.08,1.18h.08a10.5,10.5,0,0,1,1.75-.9,4,4,0,0,1,1.42-.28,2.34,2.34,0,0,1,1.72.59,2.41,2.41,0,0,1,.6,1.79v6.42H68.91V80.42a1.72,1.72,0,0,0-.31-1.16,1.25,1.25,0,0,0-1-.34,3.15,3.15,0,0,0-1,.21,8.16,8.16,0,0,0-1.24.58v6.53H63.57V80.42a1.75,1.75,0,0,0-.3-1.16,1.24,1.24,0,0,0-1-.34,3.09,3.09,0,0,0-1.06.22,7.78,7.78,0,0,0-1.22.59v6.5H58.21Z"/><path class="cls-1" d="M77.41,74.39h1.82V86.23H77.41Z"/><path class="cls-1" d="M85.36,86.41q-.94,0-1.79-.06a9.14,9.14,0,0,1-1.34-.17V74.42q1-.08,1.91-.13t1.61,0a6.62,6.62,0,0,1,4.74,1.46A6.16,6.16,0,0,1,92,80.31a8.75,8.75,0,0,1-.38,2.75A4.46,4.46,0,0,1,90.43,85a4.9,4.9,0,0,1-2.06,1.1A11.32,11.32,0,0,1,85.36,86.41ZM86,84.92a5.92,5.92,0,0,0,1.89-.26,3,3,0,0,0,1.29-.82,3.42,3.42,0,0,0,.74-1.42,8,8,0,0,0,.24-2.1,7.85,7.85,0,0,0-.24-2.08,3.42,3.42,0,0,0-.74-1.42A2.93,2.93,0,0,0,87.85,76,6.11,6.11,0,0,0,86,75.75l-.92,0-1,.08v8.9c.36.05.69.09,1,.12S85.63,84.92,86,84.92Z"/><path class="cls-1" d="M94.41,74.39h7.84v1.47h-6v3.65h5.57V81H96.24v3.78h6.16v1.47h-8Z"/></svg>