<svg id="Layer_1" data-name="Layer 1" xmlns="http://www.w3.org/2000/svg" viewBox="0 0 11.56 11.56"><defs><style>.cls-1{fill:#949ca1;}</style></defs><title>nav external link icon </title><polygon class="cls-1" points="11.56 0 11.56 4.37 10.16 4.37 10.16 2.39 4.65 7.9 3.66 6.91 9.17 1.4 7.19 1.4 7.19 0 11.56 0"/><path class="cls-1" d="M10.16,7.34h1.4V9.49a2.07,2.07,0,0,1-2.07,2.07H2.07A2.07,2.07,0,0,1,0,9.49V2.07A2.07,2.07,0,0,1,2.07,0H4.22V1.4H2.07a.67.67,0,0,0-.67.67V9.49a.67.67,0,0,0,.67.67H9.49a.67.67,0,0,0,.67-.67Z"/></svg>