<svg id="Layer_1" data-name="Layer 1" xmlns="http://www.w3.org/2000/svg" viewBox="0 0 34 34"><defs><style>.cls-1{fill:#a6a8ab;}</style></defs><title>social icons youtube </title><polygon class="cls-1" points="9.74 18.43 10.97 18.43 10.97 24.55 12.16 24.55 12.16 18.43 13.39 18.43 13.39 17.39 9.74 17.39 9.74 18.43"/><path class="cls-1" d="M17,13.35a.54.54,0,0,0,.38-.13.48.48,0,0,0,.14-.37V9.68a.37.37,0,0,0-.15-.31A.58.58,0,0,0,17,9.26a.52.52,0,0,0-.35.12.39.39,0,0,0-.13.31v3.17a.5.5,0,0,0,.13.37A.48.48,0,0,0,17,13.35Z"/><path class="cls-1" d="M19.67,19.2a1,1,0,0,0-.49.13,1.64,1.64,0,0,0-.45.37V17.39H17.66v7.16h1.07v-.4a1.35,1.35,0,0,0,.45.36,1.26,1.26,0,0,0,.55.11.88.88,0,0,0,.72-.3,1.32,1.32,0,0,0,.25-.86V20.53a1.56,1.56,0,0,0-.26-1A.91.91,0,0,0,19.67,19.2Zm-.06,4.11a.58.58,0,0,1-.09.36.34.34,0,0,1-.29.11.62.62,0,0,1-.25-.06.88.88,0,0,1-.25-.19V20.25a.74.74,0,0,1,.22-.16.5.5,0,0,1,.22-.05.41.41,0,0,1,.33.14.64.64,0,0,1,.11.41Z"/><path class="cls-1" d="M15.81,23.28a1.49,1.49,0,0,1-.33.28.6.6,0,0,1-.29.11.26.26,0,0,1-.22-.08.45.45,0,0,1-.07-.27V19.27H13.86v4.41a1.14,1.14,0,0,0,.19.71.66.66,0,0,0,.55.23,1.29,1.29,0,0,0,.61-.17,2.36,2.36,0,0,0,.61-.49v.58h1.06V19.27H15.81Z"/><path class="cls-1" d="M17,0A17,17,0,1,0,34,17,17,17,0,0,0,17,0Zm2.75,8.4h1.19v4.46a.47.47,0,0,0,.08.3.29.29,0,0,0,.24.09.7.7,0,0,0,.33-.12,1.61,1.61,0,0,0,.37-.32V8.4h1.19v5.82H21.95v-.64a2.5,2.5,0,0,1-.68.54,1.5,1.5,0,0,1-.69.19A.75.75,0,0,1,20,14a1.22,1.22,0,0,1-.21-.78ZM15.33,9.73a1.34,1.34,0,0,1,.48-1.08,2,2,0,0,1,1.29-.4,1.75,1.75,0,0,1,1.21.42,1.4,1.4,0,0,1,.47,1.09v3a1.51,1.51,0,0,1-.46,1.17,1.82,1.82,0,0,1-1.27.42,1.76,1.76,0,0,1-1.25-.44,1.55,1.55,0,0,1-.47-1.18ZM12.1,6.33,13,9.48h.08l.83-3.15h1.36l-1.56,4.61v3.27H12.34V11.09L10.75,6.33ZM27.66,22.92a3.81,3.81,0,0,1-3.81,3.81H10.61A3.81,3.81,0,0,1,6.8,22.92V19.86A3.81,3.81,0,0,1,10.61,16H23.85a3.81,3.81,0,0,1,3.81,3.81Z"/><path class="cls-1" d="M22.85,19.14a1.59,1.59,0,0,0-1.15.43,1.48,1.48,0,0,0-.45,1.12v2.37a1.68,1.68,0,0,0,.41,1.2,1.46,1.46,0,0,0,1.12.44A1.58,1.58,0,0,0,24,24.28a1.69,1.69,0,0,0,.4-1.22v-.27H23.27V23a1.13,1.13,0,0,1-.11.6.44.44,0,0,1-.37.14.4.4,0,0,1-.36-.16,1.16,1.16,0,0,1-.1-.58V22h2V20.69A1.58,1.58,0,0,0,24,19.53,1.49,1.49,0,0,0,22.85,19.14Zm.42,2.08h-.93v-.53a.77.77,0,0,1,.11-.47.42.42,0,0,1,.36-.15.41.41,0,0,1,.35.15.78.78,0,0,1,.11.47Z"/></svg>