<svg id="Layer_1" data-name="Layer 1" xmlns="http://www.w3.org/2000/svg" viewBox="0 0 34 33.16"><defs><style>.cls-1{fill:#a6a8ab;fill-rule:evenodd;}</style></defs><title>social icons git hub</title><path class="cls-1" d="M17,0a17,17,0,0,0-5.37,33.13c.85.16,1.16-.37,1.16-.82s0-1.47,0-2.89C8,30.45,7,27.14,7,27.14a4.5,4.5,0,0,0-1.89-2.49c-1.54-1.05.12-1,.12-1a3.57,3.57,0,0,1,2.6,1.75,3.62,3.62,0,0,0,4.95,1.41,3.63,3.63,0,0,1,1.08-2.27c-3.77-.43-7.74-1.89-7.74-8.4A6.57,6.57,0,0,1,7.9,11.55a6.11,6.11,0,0,1,.17-4.5s1.43-.46,4.67,1.74a16.11,16.11,0,0,1,8.51,0c3.25-2.2,4.67-1.74,4.67-1.74a6.11,6.11,0,0,1,.17,4.5,6.56,6.56,0,0,1,1.75,4.56c0,6.53-4,8-7.76,8.39a4.06,4.06,0,0,1,1.15,3.15c0,2.27,0,4.11,0,4.66s.31,1,1.17.82A17,17,0,0,0,17,0Z"/></svg>