<svg id="Layer_1" data-name="Layer 1" xmlns="http://www.w3.org/2000/svg" viewBox="0 0 34 34"><defs><style>.cls-1{fill:#fff;}</style></defs><title>social icons mail white</title><path class="cls-1" d="M17,0A17,17,0,1,0,34,17,17,17,0,0,0,17,0ZM8.61,10.6a1.4,1.4,0,0,1,1.16-.51H24.23a1.58,1.58,0,0,1,1.57,1.57,2.59,2.59,0,0,1-.48,1.48,4.66,4.66,0,0,1-1.2,1.21l-4.6,3.19-.42.3-.53.37-.51.32a3,3,0,0,1-.56.26,1.56,1.56,0,0,1-.49.09h0a1.55,1.55,0,0,1-.49-.09,3,3,0,0,1-.56-.26l-.51-.32-.53-.37-.42-.3L11.9,15.75l-2-1.4a4.87,4.87,0,0,1-1.15-1.13,2.29,2.29,0,0,1-.54-1.34A2,2,0,0,1,8.61,10.6ZM25.8,22.34a1.58,1.58,0,0,1-1.57,1.57H9.77A1.58,1.58,0,0,1,8.2,22.34v-7.8a5.2,5.2,0,0,0,1,.85q3.55,2.42,4.88,3.39.56.41.91.64a5.6,5.6,0,0,0,.93.47,2.83,2.83,0,0,0,1.08.24h0a2.83,2.83,0,0,0,1.08-.24,5.6,5.6,0,0,0,.93-.47q.35-.23.91-.64,1.67-1.21,4.89-3.39a5.41,5.41,0,0,0,1-.85Z"/></svg>