<svg id="Layer_1" data-name="Layer 1" xmlns="http://www.w3.org/2000/svg" viewBox="0 0 34 34"><defs><style>.cls-1{fill:#fff;}</style></defs><title>social icons twitter whte</title><path class="cls-1" d="M17,0A17,17,0,1,0,34,17,17,17,0,0,0,17,0Zm8.56,13.57c0,.18,0,.37,0,.55A12.18,12.18,0,0,1,6.82,24.39a8.82,8.82,0,0,0,1,.06,8.6,8.6,0,0,0,5.32-1.83,4.29,4.29,0,0,1-4-3,4.29,4.29,0,0,0,1.93-.07,4.29,4.29,0,0,1-3.44-4.2s0,0,0-.05a4.28,4.28,0,0,0,1.94.54,4.29,4.29,0,0,1-1.33-5.72,12.16,12.16,0,0,0,8.83,4.48,4.29,4.29,0,0,1,7.3-3.91,8.56,8.56,0,0,0,2.72-1A4.3,4.3,0,0,1,25.24,12a8.58,8.58,0,0,0,2.46-.67A8.71,8.71,0,0,1,25.56,13.57Z"/></svg>