<svg id="Layer_1" data-name="Layer 1" xmlns="http://www.w3.org/2000/svg" viewBox="0 0 162.29 89.75"><defs><style>.cls-1{fill:#fff;}</style></defs><title>selenium webdriver logo centered white</title><path class="cls-1" d="M90.36,38a4.4,4.4,0,0,0-4.51,3.91A.15.15,0,0,0,86,42h8.73a.15.15,0,0,0,.15-.16A4.25,4.25,0,0,0,90.36,38Z"/><path class="cls-1" d="M109.08,8.66,90.54,29.48a.57.57,0,0,1-.83,0l-9.46-9.75a.57.57,0,0,1-.06-.71l3.13-4a.57.57,0,0,1,.91-.05l5.26,5.86a.57.57,0,0,0,.86,0L105.21.63a.4.4,0,0,0-.32-.63h-52a.44.44,0,0,0-.44.44V59.56a.44.44,0,0,0,.44.44h56.41a.44.44,0,0,0,.44-.44V8.93A.4.4,0,0,0,109.08,8.66ZM68.48,53.42a14.26,14.26,0,0,1-10.13-3.6.55.55,0,0,1-.06-.72L60.49,46a.55.55,0,0,1,.83-.08,10.85,10.85,0,0,0,7.42,2.9c2.89,0,4.31-1.34,4.31-2.75,0-4.38-14.25-1.37-14.25-10.69,0-4.12,3.56-7.53,9.39-7.53A13.91,13.91,0,0,1,77.45,31a.55.55,0,0,1,.07.75l-2.26,3a.55.55,0,0,1-.79.1,10.73,10.73,0,0,0-6.77-2.33c-2.26,0-3.53,1-3.53,2.49,0,3.93,14.21,1.3,14.21,10.54C78.39,50,75.16,53.42,68.48,53.42Zm31.1-8.59a.49.49,0,0,1-.49.49h-13a.15.15,0,0,0-.15.17,5,5,0,0,0,5.27,4.09,8.15,8.15,0,0,0,4.52-1.49.48.48,0,0,1,.7.11L98,50.52a.49.49,0,0,1-.1.66,11.78,11.78,0,0,1-7.23,2.25c-5.6,0-9.83-3.77-9.83-9.67a9.36,9.36,0,0,1,9.52-9.64c5.48,0,9.22,4.11,9.22,10.13Z"/><path class="cls-1" d="M4.58,86.42a14.31,14.31,0,0,1-1.9-.14q-1.05-.14-2-.37V84.39a17.8,17.8,0,0,0,2,.39,13.37,13.37,0,0,0,1.79.14q2.65,0,2.65-1.76a1.65,1.65,0,0,0-.19-.83,1.76,1.76,0,0,0-.54-.58,3.24,3.24,0,0,0-.82-.4q-.47-.16-1-.3a10.23,10.23,0,0,1-1.65-.54,4.08,4.08,0,0,1-1.14-.72,2.59,2.59,0,0,1-.66-1,3.63,3.63,0,0,1-.22-1.31,3.16,3.16,0,0,1,.3-1.38,2.94,2.94,0,0,1,.85-1,4,4,0,0,1,1.34-.66,6.3,6.3,0,0,1,1.77-.23,11.78,11.78,0,0,1,1.47.1q.77.1,1.79.32v1.5a12.43,12.43,0,0,0-1.6-.32,11.44,11.44,0,0,0-1.5-.11,3.14,3.14,0,0,0-1.86.48,1.67,1.67,0,0,0-.09,2.61,5.45,5.45,0,0,0,2,.82,11.43,11.43,0,0,1,1.5.48A4.49,4.49,0,0,1,8,80.7a2.69,2.69,0,0,1,.74,1A3.23,3.23,0,0,1,9,83a3,3,0,0,1-1.13,2.52A5.27,5.27,0,0,1,4.58,86.42Z"/><path class="cls-1" d="M14.72,86.37a4.08,4.08,0,0,1-3.11-1.1,4.61,4.61,0,0,1-1-3.27,5,5,0,0,1,1-3.39,3.84,3.84,0,0,1,3-1.17q3.45,0,3.46,3.86A5,5,0,0,1,18,82.49H12.35A2.87,2.87,0,0,0,13,84.4a2.63,2.63,0,0,0,1.87.57,9.42,9.42,0,0,0,1.38-.11,9.67,9.67,0,0,0,1.42-.32l.08,1.33a8.64,8.64,0,0,1-1.49.38A9.62,9.62,0,0,1,14.72,86.37Zm-.14-7.62a2,2,0,0,0-1.59.63,3.41,3.41,0,0,0-.63,2h4.13a3.63,3.63,0,0,0-.47-2A1.66,1.66,0,0,0,14.58,78.76Z"/><path class="cls-1" d="M20.27,73.3h1.79V86.23H20.27Z"/><path class="cls-1" d="M28.42,86.37a4.08,4.08,0,0,1-3.11-1.1,4.62,4.62,0,0,1-1-3.27,5,5,0,0,1,1-3.39,3.83,3.83,0,0,1,3-1.17q3.46,0,3.46,3.86a4.94,4.94,0,0,1-.11,1.18H26a2.86,2.86,0,0,0,.69,1.91,2.63,2.63,0,0,0,1.87.57A9.4,9.4,0,0,0,30,84.85a9.55,9.55,0,0,0,1.42-.32l.08,1.33a8.62,8.62,0,0,1-1.49.38A9.61,9.61,0,0,1,28.42,86.37Zm-.14-7.62a2,2,0,0,0-1.59.63,3.4,3.4,0,0,0-.63,2h4.13a3.64,3.64,0,0,0-.47-2A1.66,1.66,0,0,0,28.27,78.76Z"/><path class="cls-1" d="M33.94,77.59h1.5l.11,1h.1a16.17,16.17,0,0,1,2.1-.88,5.25,5.25,0,0,1,1.58-.27A2.35,2.35,0,0,1,41,78a2.41,2.41,0,0,1,.6,1.79v6.42H39.87V80.41a1.76,1.76,0,0,0-.31-1.17,1.23,1.23,0,0,0-1-.35,4.47,4.47,0,0,0-1.3.23,12.29,12.29,0,0,0-1.56.62v6.5H33.94Z"/><path class="cls-1" d="M45.1,76a1,1,0,1,1,0-2,1.09,1.09,0,0,1,.81.26,1.31,1.31,0,0,1,0,1.54A1.09,1.09,0,0,1,45.1,76Zm-.89,1.63H46v8.64H44.21Z"/><path class="cls-1" d="M50.83,86.39a2.24,2.24,0,0,1-1.71-.61A2.48,2.48,0,0,1,48.54,84V77.59h1.79v5.87a1.76,1.76,0,0,0,.28,1.13,1.2,1.2,0,0,0,1,.33A4.13,4.13,0,0,0,53,84.64q.75-.28,1.47-.62V77.59h1.79v8.64h-1.5l-.11-1h-.06l-1.13.54a9.37,9.37,0,0,1-.9.37,5.41,5.41,0,0,1-.82.22A5.24,5.24,0,0,1,50.83,86.39Z"/><path class="cls-1" d="M58.86,77.59h1.49l.11,1h.1a11,11,0,0,1,1.71-.87,4,4,0,0,1,1.42-.28,2,2,0,0,1,2.08,1.18h.08a10.5,10.5,0,0,1,1.75-.9A4,4,0,0,1,69,77.43a2.35,2.35,0,0,1,1.72.59,2.41,2.41,0,0,1,.6,1.79v6.42H69.57V80.42a1.71,1.71,0,0,0-.31-1.16,1.24,1.24,0,0,0-1-.34,3.15,3.15,0,0,0-1,.21A8.2,8.2,0,0,0,66,79.7v6.53H64.22V80.42a1.74,1.74,0,0,0-.3-1.16,1.24,1.24,0,0,0-1-.34,3.08,3.08,0,0,0-1.06.22,7.78,7.78,0,0,0-1.22.59v6.5H58.86Z"/><path class="cls-1" d="M77,74.39h1.94l1.89,7.76.5,2.19h.13L82,82.15l2.11-7.76H86L88,82.15l.53,2.19h.14l.5-2.19,1.92-7.76h1.94L89.89,86.23h-2.4l-2-7.2-.45-2.29H85L84.51,79l-2,7.18H80.11Z"/><path class="cls-1" d="M98.5,86.37a4.08,4.08,0,0,1-3.11-1.1,4.61,4.61,0,0,1-1-3.27,5,5,0,0,1,1-3.39,3.84,3.84,0,0,1,3-1.17q3.45,0,3.46,3.86a5,5,0,0,1-.11,1.18H96.13a2.87,2.87,0,0,0,.69,1.91,2.63,2.63,0,0,0,1.87.57,9.42,9.42,0,0,0,1.38-.11,9.67,9.67,0,0,0,1.42-.32l.08,1.33a8.64,8.64,0,0,1-1.49.38A9.62,9.62,0,0,1,98.5,86.37Zm-.14-7.62a2,2,0,0,0-1.59.63,3.41,3.41,0,0,0-.63,2h4.13a3.63,3.63,0,0,0-.47-2A1.66,1.66,0,0,0,98.35,78.76Z"/><path class="cls-1" d="M107.65,86.41a15.91,15.91,0,0,1-1.62-.09c-.57-.06-1.25-.16-2-.31V73.3h1.79v5.23a3.42,3.42,0,0,1,2.71-1.1,3.34,3.34,0,0,1,2.68,1.07,4.94,4.94,0,0,1,.92,3.28,4.66,4.66,0,0,1-1.18,3.42A4.46,4.46,0,0,1,107.65,86.41Zm0-1.3a2.57,2.57,0,0,0,2-.72,3.7,3.7,0,0,0,.65-2.48,4,4,0,0,0-.54-2.38,2.06,2.06,0,0,0-1.74-.7,3,3,0,0,0-.86.12,2.28,2.28,0,0,0-.71.34,1.6,1.6,0,0,0-.48.57,1.68,1.68,0,0,0-.18.78V85a6.52,6.52,0,0,0,.84.12C106.95,85.1,107.28,85.11,107.63,85.11Z"/><path class="cls-1" d="M117.6,86.41q-.94,0-1.79-.06a9.17,9.17,0,0,1-1.35-.17V74.42q1-.08,1.91-.13t1.61,0a6.62,6.62,0,0,1,4.74,1.46,6.16,6.16,0,0,1,1.51,4.6,8.75,8.75,0,0,1-.38,2.75,4.45,4.45,0,0,1-1.18,1.9,4.91,4.91,0,0,1-2.06,1.1A11.32,11.32,0,0,1,117.6,86.41Zm.61-1.49a5.93,5.93,0,0,0,1.89-.26,3,3,0,0,0,1.29-.82,3.42,3.42,0,0,0,.74-1.42,8,8,0,0,0,.24-2.1,7.85,7.85,0,0,0-.24-2.08,3.42,3.42,0,0,0-.74-1.42A2.94,2.94,0,0,0,120.1,76a6.12,6.12,0,0,0-1.89-.26l-.92,0-1,.08v8.9c.36.05.69.09,1,.12S117.87,84.92,118.21,84.92Z"/><path class="cls-1" d="M126.45,77.59H128l.11,1.22h.06q.82-.5,1.56-.86a5.58,5.58,0,0,1,1.42-.5h.58V79h-.62a7.23,7.23,0,0,0-1.45.35,9.16,9.16,0,0,0-1.37.61v6.22h-1.79Z"/><path class="cls-1" d="M134.24,76a1,1,0,1,1,0-2,1.09,1.09,0,0,1,.81.26,1.31,1.31,0,0,1,0,1.54A1.09,1.09,0,0,1,134.24,76Zm-.89,1.63h1.79v8.64h-1.79Z"/><path class="cls-1" d="M136.86,77.8v-.21h1.87l2,5.71.4,1.49h.16l.42-1.49,2-5.71h1.86v.21l-3.25,8.43h-2.27Z"/><path class="cls-1" d="M151,86.37a4.08,4.08,0,0,1-3.11-1.1,4.61,4.61,0,0,1-1-3.27,5,5,0,0,1,1-3.39,3.84,3.84,0,0,1,3-1.17q3.45,0,3.46,3.86a5,5,0,0,1-.11,1.18h-5.63a2.87,2.87,0,0,0,.69,1.91,2.63,2.63,0,0,0,1.87.57,9.42,9.42,0,0,0,1.38-.11,9.67,9.67,0,0,0,1.42-.32l.08,1.33a8.64,8.64,0,0,1-1.49.38A9.62,9.62,0,0,1,151,86.37Zm-.14-7.62a2,2,0,0,0-1.59.63,3.41,3.41,0,0,0-.63,2h4.13a3.63,3.63,0,0,0-.47-2A1.66,1.66,0,0,0,150.88,78.76Z"/><path class="cls-1" d="M156.54,77.59H158l.11,1.22h.06q.82-.5,1.56-.86a5.58,5.58,0,0,1,1.42-.5h.58V79h-.62a7.23,7.23,0,0,0-1.45.35,9.16,9.16,0,0,0-1.37.61v6.22h-1.79Z"/></svg>